<svg width="96" height="30" viewBox="0 0 96 30" fill="none" xmlns="http://www.w3.org/2000/svg">
<path d="M37.074 10.6V11.848H34.398V19H33.15V11.848H30.48V10.6H37.074ZM43.6786 15.238V19H42.4306V15.544C42.4306 15.276 42.3646 15.032 42.2326 14.812C42.1046 14.592 41.9306 14.418 41.7106 14.29C41.4946 14.158 41.2506 14.092 40.9786 14.092C40.7146 14.092 40.4726 14.158 40.2526 14.29C40.0326 14.418 39.8566 14.592 39.7246 14.812C39.5926 15.032 39.5266 15.276 39.5266 15.544V19H38.2786V10H39.5266V13.636C39.7346 13.388 39.9906 13.192 40.2946 13.048C40.5986 12.904 40.9266 12.832 41.2786 12.832C41.7226 12.832 42.1266 12.94 42.4906 13.156C42.8546 13.372 43.1426 13.662 43.3546 14.026C43.5706 14.39 43.6786 14.794 43.6786 15.238ZM44.8763 19V13H46.1243V13.636C46.3323 13.388 46.5883 13.192 46.8923 13.048C47.1963 12.904 47.5243 12.832 47.8763 12.832C48.1003 12.832 48.3223 12.862 48.5423 12.922L48.0443 14.182C47.8883 14.122 47.7323 14.092 47.5763 14.092C47.3123 14.092 47.0703 14.158 46.8503 14.29C46.6303 14.418 46.4543 14.592 46.3223 14.812C46.1903 15.032 46.1243 15.276 46.1243 15.544V19H44.8763ZM51.5944 19.156C51.0424 19.156 50.5384 19.014 50.0824 18.73C49.6304 18.446 49.2684 18.066 48.9964 17.59C48.7284 17.11 48.5944 16.58 48.5944 16C48.5944 15.56 48.6724 15.15 48.8284 14.77C48.9844 14.386 49.1984 14.05 49.4704 13.762C49.7464 13.47 50.0664 13.242 50.4304 13.078C50.7944 12.914 51.1824 12.832 51.5944 12.832C52.0544 12.832 52.4764 12.928 52.8604 13.12C53.2444 13.308 53.5724 13.57 53.8444 13.906C54.1164 14.238 54.3164 14.622 54.4444 15.058C54.5724 15.49 54.6104 15.95 54.5584 16.438H49.9324C49.9844 16.714 50.0844 16.964 50.2324 17.188C50.3844 17.408 50.5764 17.582 50.8084 17.71C51.0444 17.838 51.3064 17.904 51.5944 17.908C51.8984 17.908 52.1744 17.832 52.4224 17.68C52.6744 17.528 52.8804 17.318 53.0404 17.05L54.3064 17.344C54.0664 17.876 53.7044 18.312 53.2204 18.652C52.7364 18.988 52.1944 19.156 51.5944 19.156ZM49.8904 15.484H53.2984C53.2584 15.196 53.1564 14.936 52.9924 14.704C52.8324 14.468 52.6304 14.282 52.3864 14.146C52.1464 14.006 51.8824 13.936 51.5944 13.936C51.3104 13.936 51.0464 14.004 50.8024 14.14C50.5624 14.276 50.3624 14.462 50.2024 14.698C50.0464 14.93 49.9424 15.192 49.8904 15.484ZM60.2083 13H61.4563V19H60.2023L60.1543 18.13C59.9783 18.438 59.7403 18.686 59.4403 18.874C59.1403 19.062 58.7863 19.156 58.3783 19.156C57.9383 19.156 57.5243 19.074 57.1363 18.91C56.7483 18.742 56.4063 18.51 56.1103 18.214C55.8183 17.918 55.5903 17.578 55.4263 17.194C55.2623 16.806 55.1803 16.39 55.1803 15.946C55.1803 15.518 55.2603 15.116 55.4203 14.74C55.5803 14.36 55.8023 14.028 56.0863 13.744C56.3703 13.46 56.6983 13.238 57.0703 13.078C57.4463 12.914 57.8483 12.832 58.2763 12.832C58.7123 12.832 59.0963 12.932 59.4283 13.132C59.7643 13.328 60.0423 13.58 60.2623 13.888L60.2083 13ZM58.3483 17.95C58.7003 17.95 59.0083 17.864 59.2723 17.692C59.5363 17.516 59.7403 17.28 59.8843 16.984C60.0323 16.688 60.1063 16.36 60.1063 16C60.1063 15.636 60.0323 15.306 59.8843 15.01C59.7363 14.714 59.5303 14.48 59.2663 14.308C59.0063 14.132 58.7003 14.044 58.3483 14.044C58.0003 14.044 57.6823 14.132 57.3943 14.308C57.1063 14.484 56.8783 14.72 56.7103 15.016C56.5423 15.312 56.4583 15.64 56.4583 16C56.4583 16.364 56.5443 16.694 56.7163 16.99C56.8923 17.282 57.1223 17.516 57.4063 17.692C57.6943 17.864 58.0083 17.95 58.3483 17.95ZM67.2104 10H68.4584V19H67.2104V18.118C67.0144 18.43 66.7584 18.682 66.4424 18.874C66.1264 19.062 65.7564 19.156 65.3324 19.156C64.8964 19.156 64.4884 19.074 64.1084 18.91C63.7284 18.746 63.3924 18.52 63.1004 18.232C62.8124 17.94 62.5864 17.604 62.4224 17.224C62.2584 16.844 62.1764 16.436 62.1764 16C62.1764 15.564 62.2584 15.156 62.4224 14.776C62.5864 14.392 62.8124 14.056 63.1004 13.768C63.3924 13.476 63.7284 13.248 64.1084 13.084C64.4884 12.92 64.8964 12.838 65.3324 12.838C65.7564 12.838 66.1264 12.934 66.4424 13.126C66.7584 13.314 67.0144 13.562 67.2104 13.87V10ZM65.3444 17.95C65.6964 17.95 66.0044 17.864 66.2684 17.692C66.5324 17.516 66.7364 17.28 66.8804 16.984C67.0284 16.688 67.1024 16.36 67.1024 16C67.1024 15.636 67.0284 15.306 66.8804 15.01C66.7324 14.714 66.5264 14.48 66.2624 14.308C66.0024 14.132 65.6964 14.044 65.3444 14.044C64.9964 14.044 64.6784 14.132 64.3904 14.308C64.1064 14.484 63.8784 14.72 63.7064 15.016C63.5384 15.312 63.4544 15.64 63.4544 16C63.4544 16.364 63.5404 16.694 63.7124 16.99C63.8884 17.282 64.1184 17.516 64.4024 17.692C64.6904 17.864 65.0044 17.95 65.3444 17.95ZM73.7318 17.296L74.8478 17.902C74.5758 18.282 74.2298 18.586 73.8098 18.814C73.3938 19.042 72.9418 19.156 72.4538 19.156C71.9018 19.156 71.3978 19.014 70.9418 18.73C70.4898 18.446 70.1278 18.066 69.8558 17.59C69.5878 17.11 69.4538 16.58 69.4538 16C69.4538 15.56 69.5318 15.15 69.6878 14.77C69.8438 14.386 70.0578 14.05 70.3298 13.762C70.6058 13.47 70.9258 13.242 71.2898 13.078C71.6538 12.914 72.0418 12.832 72.4538 12.832C72.9418 12.832 73.3938 12.946 73.8098 13.174C74.2298 13.402 74.5758 13.708 74.8478 14.092L73.7318 14.698C73.5638 14.498 73.3678 14.346 73.1438 14.242C72.9198 14.134 72.6898 14.08 72.4538 14.08C72.1258 14.08 71.8278 14.17 71.5598 14.35C71.2958 14.526 71.0858 14.76 70.9298 15.052C70.7778 15.34 70.7018 15.656 70.7018 16C70.7018 16.34 70.7798 16.656 70.9358 16.948C71.0918 17.236 71.3018 17.468 71.5658 17.644C71.8338 17.82 72.1298 17.908 72.4538 17.908C72.7018 17.908 72.9378 17.852 73.1618 17.74C73.3858 17.628 73.5758 17.48 73.7318 17.296ZM75.9309 19V13H77.1789V13.636C77.3869 13.388 77.6429 13.192 77.9469 13.048C78.2509 12.904 78.5789 12.832 78.9309 12.832C79.1549 12.832 79.3769 12.862 79.5969 12.922L79.0989 14.182C78.9429 14.122 78.7869 14.092 78.6309 14.092C78.3669 14.092 78.1249 14.158 77.9049 14.29C77.6849 14.418 77.5089 14.592 77.3769 14.812C77.2449 15.032 77.1789 15.276 77.1789 15.544V19H75.9309ZM84.6771 13H85.9251V19H84.6711L84.6231 18.13C84.4471 18.438 84.2091 18.686 83.9091 18.874C83.6091 19.062 83.2551 19.156 82.8471 19.156C82.4071 19.156 81.9931 19.074 81.6051 18.91C81.2171 18.742 80.8751 18.51 80.5791 18.214C80.2871 17.918 80.0591 17.578 79.8951 17.194C79.7311 16.806 79.6491 16.39 79.6491 15.946C79.6491 15.518 79.7291 15.116 79.8891 14.74C80.0491 14.36 80.2711 14.028 80.5551 13.744C80.8391 13.46 81.1671 13.238 81.5391 13.078C81.9151 12.914 82.3171 12.832 82.7451 12.832C83.1811 12.832 83.5651 12.932 83.8971 13.132C84.2331 13.328 84.5111 13.58 84.7311 13.888L84.6771 13ZM82.8171 17.95C83.1691 17.95 83.4771 17.864 83.7411 17.692C84.0051 17.516 84.2091 17.28 84.3531 16.984C84.5011 16.688 84.5751 16.36 84.5751 16C84.5751 15.636 84.5011 15.306 84.3531 15.01C84.2051 14.714 83.9991 14.48 83.7351 14.308C83.4751 14.132 83.1691 14.044 82.8171 14.044C82.4691 14.044 82.1511 14.132 81.8631 14.308C81.5751 14.484 81.3471 14.72 81.1791 15.016C81.0111 15.312 80.9271 15.64 80.9271 16C80.9271 16.364 81.0131 16.694 81.1851 16.99C81.3611 17.282 81.5911 17.516 81.8751 17.692C82.1631 17.864 82.4771 17.95 82.8171 17.95ZM88.6643 11.638V13H90.3563V14.248H88.6643V19H87.4163V14.248H86.7023V13H87.4163V11.638C87.4163 11.31 87.4963 11.012 87.6563 10.744C87.8163 10.472 88.0303 10.256 88.2983 10.096C88.5703 9.936 88.8723 9.856 89.2043 9.856C89.4443 9.856 89.6783 9.904 89.9063 10C90.1343 10.096 90.3383 10.244 90.5183 10.444L89.6243 11.326C89.5803 11.254 89.5183 11.2 89.4383 11.164C89.3623 11.124 89.2843 11.104 89.2043 11.104C89.0563 11.104 88.9283 11.156 88.8203 11.26C88.7163 11.364 88.6643 11.49 88.6643 11.638ZM94.6966 14.248H93.4366L93.4306 19H92.1826L92.1886 14.248H91.2346V13H92.1886L92.1826 11.116H93.4306L93.4366 13H94.6966V14.248Z" fill="black"/>
<mask id="path-2-outside-1_22_31" maskUnits="userSpaceOnUse" x="0" y="4" width="24" height="22" fill="black">
<rect fill="white" y="4" width="24" height="22"/>
<path fill-rule="evenodd" clip-rule="evenodd" d="M14 20.1973C13.1175 20.7078 12.0929 21 11 21C7.68628 21 5 18.3137 5 15C5 11.6863 7.68628 9 11 9C12.0929 9 13.1175 9.29218 14 9.80269C13.3607 10.1725 12.796 10.6569 12.3339 11.2278C11.9167 11.0803 11.4677 11 11 11C8.79086 11 7 12.7908 7 15C7 17.2092 8.79086 19 11 19C11.4677 19 11.9167 18.9197 12.3339 18.7722C12.796 19.3431 13.3607 19.8275 14 20.1973ZM15.6662 11.2278C16.5003 12.2584 17 13.5708 17 15C17 16.4292 16.5003 17.7416 15.6662 18.7722C15.0177 18.5429 14.446 18.1511 14 17.6458C14.6224 16.9407 15 16.0145 15 15C15 13.9855 14.6224 13.0593 14 12.3542C14.446 11.8489 15.0177 11.4571 15.6662 11.2278Z"/>
</mask>
<path fill-rule="evenodd" clip-rule="evenodd" d="M14 20.1973C13.1175 20.7078 12.0929 21 11 21C7.68628 21 5 18.3137 5 15C5 11.6863 7.68628 9 11 9C12.0929 9 13.1175 9.29218 14 9.80269C13.3607 10.1725 12.796 10.6569 12.3339 11.2278C11.9167 11.0803 11.4677 11 11 11C8.79086 11 7 12.7908 7 15C7 17.2092 8.79086 19 11 19C11.4677 19 11.9167 18.9197 12.3339 18.7722C12.796 19.3431 13.3607 19.8275 14 20.1973ZM15.6662 11.2278C16.5003 12.2584 17 13.5708 17 15C17 16.4292 16.5003 17.7416 15.6662 18.7722C15.0177 18.5429 14.446 18.1511 14 17.6458C14.6224 16.9407 15 16.0145 15 15C15 13.9855 14.6224 13.0593 14 12.3542C14.446 11.8489 15.0177 11.4571 15.6662 11.2278Z" fill="white"/>
<path d="M14 20.1973L16.5036 24.5253L23.9855 20.1973L16.5036 15.8693L14 20.1973ZM14 9.80269L16.5036 14.1307L23.9855 9.80269L16.5036 5.47466L14 9.80269ZM12.3339 11.2278L10.667 15.9418L13.9976 17.1195L16.2203 14.3736L12.3339 11.2278ZM12.3339 18.7722L16.2203 15.6264L13.9976 12.8805L10.667 14.0582L12.3339 18.7722ZM15.6662 11.2278L19.5526 8.08203L17.3299 5.33609L13.9993 6.51383L15.6662 11.2278ZM15.6662 18.7722L13.9993 23.4862L17.3299 24.6639L19.5526 21.918L15.6662 18.7722ZM14 17.6458L10.2513 14.3372L7.33102 17.6458L10.2513 20.9545L14 17.6458ZM14 12.3542L10.2513 9.0455L7.33102 12.3542L10.2513 15.6628L14 12.3542ZM11 26C12.9953 26 14.8806 25.4642 16.5036 24.5253L11.4964 15.8693C11.3544 15.9514 11.1905 16 11 16V26ZM0 15C0 21.0751 4.92486 26 11 26V16C10.4477 16 10 15.5523 10 15H0ZM11 4C4.92486 4 0 8.92486 0 15H10C10 14.4477 10.4477 14 11 14V4ZM16.5036 5.47466C14.8806 4.53578 12.9953 4 11 4V14C11.1905 14 11.3544 14.0486 11.4964 14.1307L16.5036 5.47466ZM11.4964 5.47466C10.3245 6.15254 9.29197 7.03868 8.44746 8.08202L16.2203 14.3736C16.2999 14.2751 16.3969 14.1925 16.5036 14.1307L11.4964 5.47466ZM14.0007 6.51382C13.0557 6.17963 12.0434 6 11 6V16C10.892 16 10.7777 15.9809 10.667 15.9418L14.0007 6.51382ZM11 6C6.02946 6 2 10.0294 2 15H12C12 15.5523 11.5523 16 11 16V6ZM2 15C2 19.9706 6.02946 24 11 24V14C11.5523 14 12 14.4477 12 15H2ZM11 24C12.0434 24 13.0557 23.8204 14.0007 23.4862L10.667 14.0582C10.7777 14.0191 10.892 14 11 14V24ZM8.44746 21.918C9.29197 22.9613 10.3245 23.8475 11.4964 24.5253L16.5036 15.8693C16.3969 15.8075 16.2999 15.7249 16.2203 15.6264L8.44746 21.918ZM22 15C22 12.3846 21.081 9.97029 19.5526 8.08203L11.7797 14.3736C11.9197 14.5465 12 14.7571 12 15H22ZM19.5526 21.918C21.081 20.0297 22 17.6154 22 15H12C12 15.2429 11.9197 15.4535 11.7797 15.6264L19.5526 21.918ZM10.2513 20.9545C11.2498 22.0858 12.5337 22.9679 13.9993 23.4862L17.333 14.0582C17.5017 14.1179 17.6422 14.2165 17.7487 14.3372L10.2513 20.9545ZM17.7487 20.9545C19.1464 19.371 20 17.2791 20 15H10C10 14.7498 10.0984 14.5104 10.2513 14.3372L17.7487 20.9545ZM20 15C20 12.7209 19.1464 10.629 17.7487 9.04551L10.2513 15.6628C10.0984 15.4896 10 15.2502 10 15H20ZM13.9993 6.51383C12.5337 7.03206 11.2498 7.91419 10.2513 9.0455L17.7487 15.6628C17.6422 15.7835 17.5017 15.8821 17.333 15.9418L13.9993 6.51383Z" fill="black" mask="url(#path-2-outside-1_22_31)"/>
</svg>
